HIERARCHY
ROOT hip
{
	OFFSET 0.000000 0.000000 0.000000 
	CHANNELS 6 Xposition Yposition Zposition Zrotation Xrotation Yrotation
	JOINT abdomen
	{
		OFFSET 0.000000 3.402643 0.000000 
		CHANNELS 3 Zrotation Xrotation Yrotation
		JOINT chest
		{
			OFFSET 0.000000 8.438565 -0.680529 
			CHANNELS 3 Zrotation Xrotation Yrotation
			JOINT neck
			{
				OFFSET 0.000000 10.207942 -0.272212 
				CHANNELS 3 Zrotation Xrotation Yrotation
				JOINT head
				{
					OFFSET 0.000000 3.130431 0.000000 
					CHANNELS 3 Zrotation Xrotation Yrotation
					End Site
					{
						OFFSET 0.000000 3.130435 0.000000 
					}
				}
			}
			JOINT lCollar
			{
				OFFSET 3.470700 6.669187 -0.816635 
				CHANNELS 3 Zrotation Xrotation Yrotation
				JOINT lShldr
				{
					OFFSET 3.198488 0.000000 0.000000 
					CHANNELS 3 Zrotation Xrotation Yrotation
					JOINT lForeArm
					{
						OFFSET 10.139888 0.000000 0.000000 
						CHANNELS 3 Zrotation Xrotation Yrotation
						JOINT lHand
						{
							OFFSET 8.370511 0.000000 0.000000 
							CHANNELS 3 Zrotation Xrotation Yrotation
							End Site
							{
								OFFSET 4.083176 0.000000 0.000000 
							}
						}
					}
				}
			}
			JOINT rCollar
			{
				OFFSET -3.470700 6.669187 -0.816635 
				CHANNELS 3 Zrotation Xrotation Yrotation
				JOINT rShldr
				{
					OFFSET -3.198488 0.000000 0.000000 
					CHANNELS 3 Zrotation Xrotation Yrotation
					JOINT rForeArm
					{
						OFFSET -10.139888 0.000000 0.000000 
						CHANNELS 3 Zrotation Xrotation Yrotation
						JOINT rHand
						{
							OFFSET -8.370511 0.000000 0.000000 
							CHANNELS 3 Zrotation Xrotation Yrotation
							End Site
							{
								OFFSET -4.083176 0.000000 0.000000 
							}
						}
					}
				}
			}
		}
	}
	JOINT lThigh
	{
		OFFSET 5.308129 -1.633274 1.361059 
		CHANNELS 3 Zrotation Xrotation Yrotation
		JOINT lShin
		{
			OFFSET -2.041588 -20.007561 0.000000 
			CHANNELS 3 Zrotation Xrotation Yrotation
			JOINT lFoot
			{
				OFFSET 0.000000 -19.190928 -1.224953 
				CHANNELS 3 Zrotation Xrotation Yrotation
				End Site
				{
					OFFSET 0.000000 -2.449906 4.627600 
				}
			}
		}
	}
	JOINT rThigh
	{
		OFFSET -5.308129 -1.633274 1.361059 
		CHANNELS 3 Zrotation Xrotation Yrotation
		JOINT rShin
		{
			OFFSET 2.041588 -20.007561 0.000000 
			CHANNELS 3 Zrotation Xrotation Yrotation
			JOINT rFoot
			{
				OFFSET 0.000000 -19.190928 -1.224953 
				CHANNELS 3 Zrotation Xrotation Yrotation
				End Site
				{
					OFFSET 0.000000 -2.449906 4.627600 
				}
			}
		}
	}
}
MOTION
Frames: 8
Frame Time: 0.033333
-0.031290 46.278160 3.606494 0.000000 5.556631 2.011752 1.005931 -0.683489 -1.042687 0.635494 2.743971 -7.335002 0.009766 0.400386 -0.127020 -1.472253 5.750067 4.141678 -4.077314 -8.459569 -9.340540 -70.780403 4.634613 -11.806737 19.419491 28.400984 -33.404827 -13.196604 0.913004 -16.385870 0.465587 -0.055265 -5.575987 70.577126 -6.635031 -23.811817 -4.919889 29.736423 6.875963 6.896779 0.773914 0.788852 -0.227599 19.097721 -1.503743 -5.605747 16.234007 0.589372 1.625931 4.556462 1.394926 -1.571929 -34.918873 -6.191121 0.751660 -2.952456 -2.404074 0.604757 22.299715 -2.949248 
-0.051903 45.563335 3.606494 0.186561 5.976512 2.285294 1.650598 -0.907828 -0.803919 0.410778 3.163979 -6.565631 0.351563 0.039058 -0.205318 -1.028703 4.598871 3.227022 -7.742800 -6.895586 -7.227777 -67.113701 9.479259 -16.530895 19.053370 29.219036 -32.134018 -12.603539 1.115136 -15.773581 3.486167 -1.437579 -3.821872 67.743561 -8.462622 -22.435074 -4.518597 27.151310 6.872801 6.301981 0.566858 1.324076 -0.787179 31.074625 -2.155147 -2.467614 2.667352 2.489642 -3.500418 20.807112 3.056028 -1.029320 -29.238247 -4.941037 0.808273 -1.070707 -1.591936 -4.134381 24.398529 -0.349694 
-0.059539 46.299126 3.606494 0.354037 6.777210 1.550077 1.603209 -2.596639 -0.542308 0.107716 4.228507 -4.080189 0.078125 -0.009773 -0.097643 -0.763302 3.691079 2.021798 -9.000836 -4.333424 -3.717420 -67.901337 9.462714 -17.610586 18.030104 30.578110 -29.470490 -11.768328 1.034160 -13.990793 6.732656 -4.133576 2.159334 67.585632 -9.185312 -18.398502 -4.801394 25.794371 7.983331 6.964699 0.582375 1.902646 -0.077980 -0.744983 1.224748 -8.999112 53.259876 6.062050 -2.927791 8.887032 6.096164 -1.021738 -30.700600 -5.347795 0.930665 20.943813 -0.475249 -6.512009 -0.482707 -2.062768 
-0.045049 47.765339 3.606494 0.433194 7.294706 -0.445557 0.715415 -4.814079 -0.428117 -0.727508 6.620567 0.298725 -0.175781 -0.107427 0.019201 -0.401332 3.935452 0.271621 -7.968180 -1.211659 0.503011 -73.078049 5.718722 -13.358727 14.699731 32.354412 -22.962660 -10.813030 0.962081 -10.829261 8.482634 -7.948480 9.619824 72.207764 -7.829237 -11.524897 -6.726765 26.086845 12.067117 7.933146 0.308703 2.797642 1.102801 -25.459656 2.487353 -13.484425 72.762947 11.308737 -2.306416 6.316323 9.877641 -0.114952 -21.046389 -4.660921 1.058690 18.150978 -0.018926 -7.815029 -7.526833 -2.048555 
-0.059877 48.627911 3.606494 0.433940 8.027112 -2.248097 0.206006 -5.439415 -0.468753 -0.965727 7.694240 3.293209 -0.039063 -0.097662 0.068292 -0.264499 4.531203 -2.264260 -2.484471 1.968312 2.870309 -76.040718 0.740992 -2.588109 10.898495 33.217010 -16.227135 -9.940810 0.898900 -6.788046 3.981916 -10.905557 14.363359 75.882011 -5.198073 -2.981020 -10.850836 26.963427 19.953880 9.180214 0.859940 3.860250 1.659058 -37.943005 3.413698 -5.694496 61.433609 4.362576 0.798553 8.634611 4.683414 0.354441 -7.300091 -3.789474 0.398358 1.214615 -0.912946 -6.339968 -5.242486 0.675053 
-0.139480 48.368851 3.606494 0.354501 7.382657 -2.770161 -0.156821 -4.892560 -0.101266 -1.002881 6.668915 5.751244 0.380859 -0.087893 0.166600 0.607024 4.101335 -3.852011 0.042064 3.168497 4.723974 -76.169090 -2.217981 9.079126 7.339938 32.857143 -10.204614 -8.233936 0.902842 -3.432605 0.483469 -11.717287 13.986676 76.678398 -2.801155 4.957113 -13.508028 28.249050 23.935219 11.011304 0.863240 6.335834 0.379798 -39.721283 3.036697 0.198500 36.302246 -0.421716 0.695036 3.878366 0.867893 0.293370 -2.884706 -4.558213 0.292280 14.226678 0.462662 -5.148505 -12.281843 1.373647 
-0.138116 47.144112 3.606494 0.186969 7.070270 -3.128483 -0.596306 -2.577987 0.715366 -0.930301 4.257257 6.856018 0.869142 -0.068352 0.333068 1.028086 4.149724 -4.088075 0.645410 2.779700 6.109917 -73.149338 -4.083179 19.573183 5.283028 31.167830 -6.990400 -6.342033 0.868334 -1.430292 -0.170241 -9.732986 11.389050 72.558037 3.408159 10.565774 -15.468401 29.535103 26.323320 12.709834 1.270326 10.579560 0.068855 -33.052013 2.393328 -0.713641 -2.284481 0.486391 0.509426 7.973902 0.859858 -0.520228 5.940381 -3.662856 -0.145105 18.941402 0.733090 -2.261846 -11.482961 2.138051 
-0.031290 46.278160 3.606494 -0.000000 5.312490 -2.988281 -1.504103 -0.927416 1.020315 -0.645558 3.232218 7.331323 -0.019531 0.400391 0.117320 1.460145 4.783610 -4.125506 -3.455175 0.724295 5.537710 -67.843552 -5.937445 23.109610 5.014467 28.975451 -7.371260 -4.312488 0.601325 -0.841026 3.328903 -4.101007 9.007723 68.006439 6.922219 14.600957 -16.488470 30.107267 27.344404 13.136246 0.933930 16.342537 1.461187 -34.678650 5.590456 -0.907358 -2.913980 2.489538 -1.073658 21.928364 3.813341 -1.056970 19.544619 1.263810 5.007347 16.381357 -0.766552 -1.594305 4.137564 -0.047390 
